<?xml version="1.0" encoding="UTF-8" standalone="no"?>
<!DOCTYPE svg PUBLIC "-//W3C//DTD SVG 1.1//EN"
 "http://www.w3.org/Graphics/SVG/1.1/DTD/svg11.dtd">
<!-- Generated by graphviz version 12.2.1 (20241206.2353)
 -->
<!-- Title: pastafarianism Pages: 1 -->
<svg width="613pt" height="357pt"
 viewBox="0.00 0.00 612.86 357.00" xmlns="http://www.w3.org/2000/svg" xmlns:xlink="http://www.w3.org/1999/xlink">
<g id="graph0" class="graph" transform="scale(1 1) rotate(0) translate(4 353)">
<title>pastafarianism</title>
<polygon fill="white" stroke="none" points="-4,4 -4,-353 608.86,-353 608.86,4 -4,4"/>
<!-- Main -->
<g id="node1" class="node">
<title>Main</title>
<polygon fill="orange" stroke="black" points="243.68,-349 189.68,-349 189.68,-313 243.68,-313 243.68,-349"/>
<text text-anchor="middle" x="216.68" y="-327.7" font-family="Times,serif" font-size="9.00">Ⓜ Main</text>
</g>
<!-- Init Position -->
<g id="node2" class="node">
<title>Init Position</title>
<ellipse fill="gray" stroke="black" cx="34.68" cy="-246.5" rx="34.68" ry="18"/>
<text text-anchor="middle" x="34.68" y="-243.2" font-family="Times,serif" font-size="9.00">Init Position</text>
</g>
<!-- Main&#45;&gt;Init Position -->
<g id="edge1" class="edge">
<title>Main&#45;&gt;Init Position</title>
<path fill="none" stroke="black" d="M189.19,-321.47C160.76,-312.19 115.47,-296.09 78.68,-277 73.51,-274.32 68.2,-271.15 63.14,-267.91"/>
<polygon fill="black" stroke="black" points="65.34,-265.17 55.07,-262.53 61.45,-270.99 65.34,-265.17"/>
</g>
<!-- OpenGripper -->
<g id="node3" class="node">
<title>OpenGripper</title>
<ellipse fill="gray" stroke="black" cx="124.68" cy="-246.5" rx="36.87" ry="18"/>
<text text-anchor="middle" x="124.68" y="-243.2" font-family="Times,serif" font-size="9.00">OpenGripper</text>
</g>
<!-- Main&#45;&gt;OpenGripper -->
<g id="edge2" class="edge">
<title>Main&#45;&gt;OpenGripper</title>
<path fill="none" stroke="black" d="M197.17,-312.5C183.41,-300.17 164.86,-283.53 149.97,-270.18"/>
<polygon fill="black" stroke="black" points="152.6,-267.83 142.81,-263.76 147.92,-273.04 152.6,-267.83"/>
</g>
<!-- CloseGripper -->
<g id="node4" class="node">
<title>CloseGripper</title>
<ellipse fill="gray" stroke="black" cx="216.68" cy="-246.5" rx="37.3" ry="18"/>
<text text-anchor="middle" x="216.68" y="-243.2" font-family="Times,serif" font-size="9.00">CloseGripper</text>
</g>
<!-- Main&#45;&gt;CloseGripper -->
<g id="edge3" class="edge">
<title>Main&#45;&gt;CloseGripper</title>
<path fill="none" stroke="black" d="M216.68,-312.5C216.68,-302 216.68,-288.39 216.68,-276.33"/>
<polygon fill="black" stroke="black" points="220.18,-276.48 216.68,-266.48 213.18,-276.48 220.18,-276.48"/>
</g>
<!-- OpenGripper* -->
<g id="node5" class="node">
<title>OpenGripper*</title>
<ellipse fill="gray" stroke="black" cx="311.68" cy="-246.5" rx="39.49" ry="18"/>
<text text-anchor="middle" x="311.68" y="-243.2" font-family="Times,serif" font-size="9.00">OpenGripper*</text>
</g>
<!-- Main&#45;&gt;OpenGripper* -->
<g id="edge4" class="edge">
<title>Main&#45;&gt;OpenGripper*</title>
<path fill="none" stroke="black" d="M236.83,-312.5C250.94,-300.25 269.94,-283.74 285.27,-270.44"/>
<polygon fill="black" stroke="black" points="287.41,-273.22 292.66,-264.02 282.82,-267.93 287.41,-273.22"/>
</g>
<!-- ParallelActions -->
<g id="node6" class="node">
<title>ParallelActions</title>
<polygon fill="gold" stroke="black" points="537.92,-277 403.91,-277 369.44,-216 503.44,-216 537.92,-277"/>
<text text-anchor="middle" x="453.68" y="-249.2" font-family="Times,serif" font-size="9.00">⚡ ParallelActions</text>
<text text-anchor="middle" x="453.68" y="-237.2" font-family="Times,serif" font-size="9.00">SuccessOnAll</text>
</g>
<!-- Main&#45;&gt;ParallelActions -->
<g id="edge5" class="edge">
<title>Main&#45;&gt;ParallelActions</title>
<path fill="none" stroke="black" d="M243.87,-320.54C278.61,-308.44 339.92,-287.1 387.33,-270.6"/>
<polygon fill="black" stroke="black" points="388.41,-273.93 396.7,-267.33 386.11,-267.32 388.41,-273.93"/>
</g>
<!-- RepeatRectangle -->
<g id="node7" class="node">
<title>RepeatRectangle</title>
<ellipse fill="ghostwhite" stroke="black" cx="453.68" cy="-162" rx="43.42" ry="18"/>
<text text-anchor="middle" x="453.68" y="-158.7" font-family="Times,serif" font-size="9.00">RepeatRectangle</text>
</g>
<!-- ParallelActions&#45;&gt;RepeatRectangle -->
<g id="edge6" class="edge">
<title>ParallelActions&#45;&gt;RepeatRectangle</title>
<path fill="none" stroke="black" d="M453.68,-215.72C453.68,-207.96 453.68,-199.62 453.68,-191.91"/>
<polygon fill="black" stroke="black" points="457.18,-192.01 453.68,-182.01 450.18,-192.01 457.18,-192.01"/>
</g>
<!-- DrawCubeRelative -->
<g id="node8" class="node">
<title>DrawCubeRelative</title>
<polygon fill="orange" stroke="black" points="501.05,-108 406.3,-108 406.3,-72 501.05,-72 501.05,-108"/>
<text text-anchor="middle" x="453.68" y="-86.7" font-family="Times,serif" font-size="9.00">Ⓜ DrawCubeRelative</text>
</g>
<!-- RepeatRectangle&#45;&gt;DrawCubeRelative -->
<g id="edge7" class="edge">
<title>RepeatRectangle&#45;&gt;DrawCubeRelative</title>
<path fill="none" stroke="black" d="M453.68,-143.7C453.68,-136.41 453.68,-127.73 453.68,-119.54"/>
<polygon fill="black" stroke="black" points="457.18,-119.62 453.68,-109.62 450.18,-119.62 457.18,-119.62"/>
</g>
<!-- RelMove1 -->
<g id="node9" class="node">
<title>RelMove1</title>
<ellipse fill="gray" stroke="black" cx="333.68" cy="-18" rx="31.18" ry="18"/>
<text text-anchor="middle" x="333.68" y="-14.7" font-family="Times,serif" font-size="9.00">RelMove1</text>
</g>
<!-- DrawCubeRelative&#45;&gt;RelMove1 -->
<g id="edge8" class="edge">
<title>DrawCubeRelative&#45;&gt;RelMove1</title>
<path fill="none" stroke="black" d="M423.71,-71.52C405.75,-61.04 382.96,-47.75 364.8,-37.15"/>
<polygon fill="black" stroke="black" points="366.69,-34.21 356.29,-32.19 363.17,-40.25 366.69,-34.21"/>
</g>
<!-- RelMove2 -->
<g id="node10" class="node">
<title>RelMove2</title>
<ellipse fill="gray" stroke="black" cx="413.68" cy="-18" rx="31.18" ry="18"/>
<text text-anchor="middle" x="413.68" y="-14.7" font-family="Times,serif" font-size="9.00">RelMove2</text>
</g>
<!-- DrawCubeRelative&#45;&gt;RelMove2 -->
<g id="edge9" class="edge">
<title>DrawCubeRelative&#45;&gt;RelMove2</title>
<path fill="none" stroke="black" d="M443.79,-71.7C439.27,-63.78 433.81,-54.23 428.79,-45.44"/>
<polygon fill="black" stroke="black" points="431.93,-43.88 423.93,-36.94 425.85,-47.36 431.93,-43.88"/>
</g>
<!-- RelMove3 -->
<g id="node11" class="node">
<title>RelMove3</title>
<ellipse fill="gray" stroke="black" cx="493.68" cy="-18" rx="31.18" ry="18"/>
<text text-anchor="middle" x="493.68" y="-14.7" font-family="Times,serif" font-size="9.00">RelMove3</text>
</g>
<!-- DrawCubeRelative&#45;&gt;RelMove3 -->
<g id="edge10" class="edge">
<title>DrawCubeRelative&#45;&gt;RelMove3</title>
<path fill="none" stroke="black" d="M463.57,-71.7C468.09,-63.78 473.55,-54.23 478.57,-45.44"/>
<polygon fill="black" stroke="black" points="481.51,-47.36 483.43,-36.94 475.43,-43.88 481.51,-47.36"/>
</g>
<!-- RelMove4 -->
<g id="node12" class="node">
<title>RelMove4</title>
<ellipse fill="gray" stroke="black" cx="573.68" cy="-18" rx="31.18" ry="18"/>
<text text-anchor="middle" x="573.68" y="-14.7" font-family="Times,serif" font-size="9.00">RelMove4</text>
</g>
<!-- DrawCubeRelative&#45;&gt;RelMove4 -->
<g id="edge11" class="edge">
<title>DrawCubeRelative&#45;&gt;RelMove4</title>
<path fill="none" stroke="black" d="M483.65,-71.52C501.61,-61.04 524.4,-47.75 542.56,-37.15"/>
<polygon fill="black" stroke="black" points="544.19,-40.25 551.07,-32.19 540.67,-34.21 544.19,-40.25"/>
</g>
</g>
</svg>
