<?xml version="1.0" encoding="UTF-8" standalone="no"?>
<!DOCTYPE svg PUBLIC "-//W3C//DTD SVG 1.1//EN"
 "http://www.w3.org/Graphics/SVG/1.1/DTD/svg11.dtd">
<!-- Generated by graphviz version 12.2.1 (20241206.2353)
 -->
<!-- Title: pastafarianism Pages: 1 -->
<svg width="1258pt" height="357pt"
 viewBox="0.00 0.00 1258.22 357.00" xmlns="http://www.w3.org/2000/svg" xmlns:xlink="http://www.w3.org/1999/xlink">
<g id="graph0" class="graph" transform="scale(1 1) rotate(0) translate(4 353)">
<title>pastafarianism</title>
<polygon fill="white" stroke="none" points="-4,4 -4,-353 1254.22,-353 1254.22,4 -4,4"/>
<!-- Main -->
<g id="node1" class="node">
<title>Main</title>
<polygon fill="orange" stroke="black" points="742.3,-349 688.3,-349 688.3,-313 742.3,-313 742.3,-349"/>
<text text-anchor="middle" x="715.3" y="-327.7" font-family="Times,serif" font-size="9.00">Ⓜ Main</text>
</g>
<!-- OpenGripper -->
<g id="node2" class="node">
<title>OpenGripper</title>
<ellipse fill="gray" stroke="black" cx="577.3" cy="-246.5" rx="36.87" ry="18"/>
<text text-anchor="middle" x="577.3" y="-243.2" font-family="Times,serif" font-size="9.00">OpenGripper</text>
</g>
<!-- Main&#45;&gt;OpenGripper -->
<g id="edge1" class="edge">
<title>Main&#45;&gt;OpenGripper</title>
<path fill="none" stroke="black" d="M688.13,-314.8C669.7,-304.38 644.87,-290.12 623.3,-277 618.36,-274 613.16,-270.75 608.11,-267.55"/>
<polygon fill="black" stroke="black" points="610.28,-264.78 599.97,-262.34 606.51,-270.67 610.28,-264.78"/>
</g>
<!-- CloseGripper -->
<g id="node3" class="node">
<title>CloseGripper</title>
<ellipse fill="gray" stroke="black" cx="669.3" cy="-246.5" rx="37.3" ry="18"/>
<text text-anchor="middle" x="669.3" y="-243.2" font-family="Times,serif" font-size="9.00">CloseGripper</text>
</g>
<!-- Main&#45;&gt;CloseGripper -->
<g id="edge2" class="edge">
<title>Main&#45;&gt;CloseGripper</title>
<path fill="none" stroke="black" d="M705.54,-312.5C699.36,-301.42 691.24,-286.86 684.26,-274.33"/>
<polygon fill="black" stroke="black" points="687.39,-272.76 679.46,-265.73 681.27,-276.17 687.39,-272.76"/>
</g>
<!-- MoveToStart -->
<g id="node4" class="node">
<title>MoveToStart</title>
<ellipse fill="gray" stroke="black" cx="761.3" cy="-246.5" rx="36.87" ry="18"/>
<text text-anchor="middle" x="761.3" y="-243.2" font-family="Times,serif" font-size="9.00">MoveToStart</text>
</g>
<!-- Main&#45;&gt;MoveToStart -->
<g id="edge3" class="edge">
<title>Main&#45;&gt;MoveToStart</title>
<path fill="none" stroke="black" d="M725.05,-312.5C731.27,-301.34 739.46,-286.67 746.48,-274.08"/>
<polygon fill="black" stroke="black" points="749.48,-275.89 751.29,-265.45 743.36,-272.48 749.48,-275.89"/>
</g>
<!-- ParallelActions -->
<g id="node5" class="node">
<title>ParallelActions</title>
<polygon fill="gold" stroke="black" points="984.53,-277 850.53,-277 816.06,-216 950.06,-216 984.53,-277"/>
<text text-anchor="middle" x="900.3" y="-249.2" font-family="Times,serif" font-size="9.00">⚡ ParallelActions</text>
<text text-anchor="middle" x="900.3" y="-237.2" font-family="Times,serif" font-size="9.00">SuccessOnAll</text>
</g>
<!-- Main&#45;&gt;ParallelActions -->
<g id="edge4" class="edge">
<title>Main&#45;&gt;ParallelActions</title>
<path fill="none" stroke="black" d="M742.59,-317.83C767.26,-306.83 804.52,-290.21 836.63,-275.89"/>
<polygon fill="black" stroke="black" points="837.76,-279.22 845.47,-271.95 834.91,-272.83 837.76,-279.22"/>
</g>
<!-- RepeatRectangle -->
<g id="node6" class="node">
<title>RepeatRectangle</title>
<ellipse fill="ghostwhite" stroke="black" cx="795.3" cy="-162" rx="43.42" ry="18"/>
<text text-anchor="middle" x="795.3" y="-158.7" font-family="Times,serif" font-size="9.00">RepeatRectangle</text>
</g>
<!-- ParallelActions&#45;&gt;RepeatRectangle -->
<g id="edge5" class="edge">
<title>ParallelActions&#45;&gt;RepeatRectangle</title>
<path fill="none" stroke="black" d="M862.39,-215.72C849.69,-205.74 835.75,-194.79 823.89,-185.46"/>
<polygon fill="black" stroke="black" points="826.09,-182.75 816.07,-179.32 821.77,-188.25 826.09,-182.75"/>
</g>
<!-- RepeatGripper -->
<g id="node18" class="node">
<title>RepeatGripper</title>
<ellipse fill="ghostwhite" stroke="black" cx="1004.3" cy="-162" rx="39.49" ry="18"/>
<text text-anchor="middle" x="1004.3" y="-158.7" font-family="Times,serif" font-size="9.00">RepeatGripper</text>
</g>
<!-- ParallelActions&#45;&gt;RepeatGripper -->
<g id="edge17" class="edge">
<title>ParallelActions&#45;&gt;RepeatGripper</title>
<path fill="none" stroke="black" d="M937.84,-215.72C950.51,-205.66 964.43,-194.63 976.24,-185.26"/>
<polygon fill="black" stroke="black" points="978.35,-188.05 984.01,-179.1 974,-182.57 978.35,-188.05"/>
</g>
<!-- DrawRectangle -->
<g id="node7" class="node">
<title>DrawRectangle</title>
<polygon fill="orange" stroke="black" points="620.3,-108 538.3,-108 538.3,-72 620.3,-72 620.3,-108"/>
<text text-anchor="middle" x="579.3" y="-86.7" font-family="Times,serif" font-size="9.00">Ⓜ DrawRectangle</text>
</g>
<!-- RepeatRectangle&#45;&gt;DrawRectangle -->
<g id="edge6" class="edge">
<title>RepeatRectangle&#45;&gt;DrawRectangle</title>
<path fill="none" stroke="black" d="M762.02,-150.22C727.22,-138.94 672.13,-121.08 631.53,-107.93"/>
<polygon fill="black" stroke="black" points="632.78,-104.65 622.19,-104.9 630.62,-111.31 632.78,-104.65"/>
</g>
<!-- MoveToCorner1 -->
<g id="node8" class="node">
<title>MoveToCorner1</title>
<ellipse fill="gray" stroke="black" cx="44.3" cy="-18" rx="44.3" ry="18"/>
<text text-anchor="middle" x="44.3" y="-14.7" font-family="Times,serif" font-size="9.00">MoveToCorner1</text>
</g>
<!-- DrawRectangle&#45;&gt;MoveToCorner1 -->
<g id="edge7" class="edge">
<title>DrawRectangle&#45;&gt;MoveToCorner1</title>
<path fill="none" stroke="black" d="M538.01,-87.17C454.28,-82.86 258.82,-69.77 98.3,-36 94.94,-35.29 91.5,-34.47 88.06,-33.56"/>
<polygon fill="black" stroke="black" points="89.18,-30.24 78.61,-30.88 87.27,-36.98 89.18,-30.24"/>
</g>
<!-- MoveToCorner2 -->
<g id="node9" class="node">
<title>MoveToCorner2</title>
<ellipse fill="gray" stroke="black" cx="151.3" cy="-18" rx="44.3" ry="18"/>
<text text-anchor="middle" x="151.3" y="-14.7" font-family="Times,serif" font-size="9.00">MoveToCorner2</text>
</g>
<!-- DrawRectangle&#45;&gt;MoveToCorner2 -->
<g id="edge8" class="edge">
<title>DrawRectangle&#45;&gt;MoveToCorner2</title>
<path fill="none" stroke="black" d="M537.94,-85.38C468.56,-78.81 324.58,-63.03 205.3,-36 202,-35.25 198.61,-34.4 195.22,-33.48"/>
<polygon fill="black" stroke="black" points="196.51,-30.21 185.93,-30.8 194.57,-36.94 196.51,-30.21"/>
</g>
<!-- MoveToCorner3 -->
<g id="node10" class="node">
<title>MoveToCorner3</title>
<ellipse fill="gray" stroke="black" cx="258.3" cy="-18" rx="44.3" ry="18"/>
<text text-anchor="middle" x="258.3" y="-14.7" font-family="Times,serif" font-size="9.00">MoveToCorner3</text>
</g>
<!-- DrawRectangle&#45;&gt;MoveToCorner3 -->
<g id="edge9" class="edge">
<title>DrawRectangle&#45;&gt;MoveToCorner3</title>
<path fill="none" stroke="black" d="M537.82,-82.21C485.05,-73.25 391.27,-56.21 312.3,-36 309.17,-35.2 305.96,-34.33 302.74,-33.41"/>
<polygon fill="black" stroke="black" points="303.87,-30.1 293.29,-30.61 301.88,-36.81 303.87,-30.1"/>
</g>
<!-- MoveToCorner4 -->
<g id="node11" class="node">
<title>MoveToCorner4</title>
<ellipse fill="gray" stroke="black" cx="365.3" cy="-18" rx="44.3" ry="18"/>
<text text-anchor="middle" x="365.3" y="-14.7" font-family="Times,serif" font-size="9.00">MoveToCorner4</text>
</g>
<!-- DrawRectangle&#45;&gt;MoveToCorner4 -->
<g id="edge10" class="edge">
<title>DrawRectangle&#45;&gt;MoveToCorner4</title>
<path fill="none" stroke="black" d="M538.04,-75.5C501.22,-63.46 447.46,-45.88 409.72,-33.53"/>
<polygon fill="black" stroke="black" points="411.07,-30.29 400.48,-30.51 408.9,-36.94 411.07,-30.29"/>
</g>
<!-- MoveToCorner5 -->
<g id="node12" class="node">
<title>MoveToCorner5</title>
<ellipse fill="gray" stroke="black" cx="472.3" cy="-18" rx="44.3" ry="18"/>
<text text-anchor="middle" x="472.3" y="-14.7" font-family="Times,serif" font-size="9.00">MoveToCorner5</text>
</g>
<!-- DrawRectangle&#45;&gt;MoveToCorner5 -->
<g id="edge11" class="edge">
<title>DrawRectangle&#45;&gt;MoveToCorner5</title>
<path fill="none" stroke="black" d="M552.57,-71.52C538.05,-62.02 519.98,-50.2 504.67,-40.18"/>
<polygon fill="black" stroke="black" points="506.61,-37.27 496.33,-34.72 502.78,-43.13 506.61,-37.27"/>
</g>
<!-- MoveToCorner6 -->
<g id="node13" class="node">
<title>MoveToCorner6</title>
<ellipse fill="gray" stroke="black" cx="579.3" cy="-18" rx="44.3" ry="18"/>
<text text-anchor="middle" x="579.3" y="-14.7" font-family="Times,serif" font-size="9.00">MoveToCorner6</text>
</g>
<!-- DrawRectangle&#45;&gt;MoveToCorner6 -->
<g id="edge12" class="edge">
<title>DrawRectangle&#45;&gt;MoveToCorner6</title>
<path fill="none" stroke="black" d="M579.3,-71.7C579.3,-64.41 579.3,-55.73 579.3,-47.54"/>
<polygon fill="black" stroke="black" points="582.8,-47.62 579.3,-37.62 575.8,-47.62 582.8,-47.62"/>
</g>
<!-- MoveToCorner7 -->
<g id="node14" class="node">
<title>MoveToCorner7</title>
<ellipse fill="gray" stroke="black" cx="686.3" cy="-18" rx="44.3" ry="18"/>
<text text-anchor="middle" x="686.3" y="-14.7" font-family="Times,serif" font-size="9.00">MoveToCorner7</text>
</g>
<!-- DrawRectangle&#45;&gt;MoveToCorner7 -->
<g id="edge13" class="edge">
<title>DrawRectangle&#45;&gt;MoveToCorner7</title>
<path fill="none" stroke="black" d="M606.02,-71.52C620.54,-62.02 638.61,-50.2 653.93,-40.18"/>
<polygon fill="black" stroke="black" points="655.81,-43.13 662.26,-34.72 651.98,-37.27 655.81,-43.13"/>
</g>
<!-- MoveToCorner8 -->
<g id="node15" class="node">
<title>MoveToCorner8</title>
<ellipse fill="gray" stroke="black" cx="793.3" cy="-18" rx="44.3" ry="18"/>
<text text-anchor="middle" x="793.3" y="-14.7" font-family="Times,serif" font-size="9.00">MoveToCorner8</text>
</g>
<!-- DrawRectangle&#45;&gt;MoveToCorner8 -->
<g id="edge14" class="edge">
<title>DrawRectangle&#45;&gt;MoveToCorner8</title>
<path fill="none" stroke="black" d="M620.56,-75.5C657.37,-63.46 711.13,-45.88 748.87,-33.53"/>
<polygon fill="black" stroke="black" points="749.69,-36.94 758.11,-30.51 747.52,-30.29 749.69,-36.94"/>
</g>
<!-- MoveToCorner9 -->
<g id="node16" class="node">
<title>MoveToCorner9</title>
<ellipse fill="gray" stroke="black" cx="900.3" cy="-18" rx="44.3" ry="18"/>
<text text-anchor="middle" x="900.3" y="-14.7" font-family="Times,serif" font-size="9.00">MoveToCorner9</text>
</g>
<!-- DrawRectangle&#45;&gt;MoveToCorner9 -->
<g id="edge15" class="edge">
<title>DrawRectangle&#45;&gt;MoveToCorner9</title>
<path fill="none" stroke="black" d="M620.78,-82.21C673.55,-73.25 767.32,-56.21 846.3,-36 849.42,-35.2 852.63,-34.33 855.85,-33.41"/>
<polygon fill="black" stroke="black" points="856.71,-36.81 865.31,-30.61 854.72,-30.1 856.71,-36.81"/>
</g>
<!-- MoveToCorner10 -->
<g id="node17" class="node">
<title>MoveToCorner10</title>
<ellipse fill="gray" stroke="black" cx="1009.3" cy="-18" rx="46.92" ry="18"/>
<text text-anchor="middle" x="1009.3" y="-14.7" font-family="Times,serif" font-size="9.00">MoveToCorner10</text>
</g>
<!-- DrawRectangle&#45;&gt;MoveToCorner10 -->
<g id="edge16" class="edge">
<title>DrawRectangle&#45;&gt;MoveToCorner10</title>
<path fill="none" stroke="black" d="M620.62,-85.24C689.96,-78.48 833.88,-62.42 953.3,-36 956.66,-35.26 960.12,-34.41 963.58,-33.5"/>
<polygon fill="black" stroke="black" points="964.41,-36.91 973.11,-30.85 962.53,-30.16 964.41,-36.91"/>
</g>
<!-- GripperSequence -->
<g id="node19" class="node">
<title>GripperSequence</title>
<polygon fill="orange" stroke="black" points="1157.67,-108 1068.92,-108 1068.92,-72 1157.67,-72 1157.67,-108"/>
<text text-anchor="middle" x="1113.3" y="-86.7" font-family="Times,serif" font-size="9.00">Ⓜ GripperSequence</text>
</g>
<!-- RepeatGripper&#45;&gt;GripperSequence -->
<g id="edge18" class="edge">
<title>RepeatGripper&#45;&gt;GripperSequence</title>
<path fill="none" stroke="black" d="M1026.62,-146.67C1041.09,-137.37 1060.28,-125.05 1076.93,-114.36"/>
<polygon fill="black" stroke="black" points="1078.58,-117.45 1085.11,-109.1 1074.8,-111.56 1078.58,-117.45"/>
</g>
<!-- OpenGripper* -->
<g id="node20" class="node">
<title>OpenGripper*</title>
<ellipse fill="gray" stroke="black" cx="1113.3" cy="-18" rx="39.49" ry="18"/>
<text text-anchor="middle" x="1113.3" y="-14.7" font-family="Times,serif" font-size="9.00">OpenGripper*</text>
</g>
<!-- GripperSequence&#45;&gt;OpenGripper* -->
<g id="edge19" class="edge">
<title>GripperSequence&#45;&gt;OpenGripper*</title>
<path fill="none" stroke="black" d="M1113.3,-71.7C1113.3,-64.41 1113.3,-55.73 1113.3,-47.54"/>
<polygon fill="black" stroke="black" points="1116.8,-47.62 1113.3,-37.62 1109.8,-47.62 1116.8,-47.62"/>
</g>
<!-- CloseGripper* -->
<g id="node21" class="node">
<title>CloseGripper*</title>
<ellipse fill="gray" stroke="black" cx="1210.3" cy="-18" rx="39.93" ry="18"/>
<text text-anchor="middle" x="1210.3" y="-14.7" font-family="Times,serif" font-size="9.00">CloseGripper*</text>
</g>
<!-- GripperSequence&#45;&gt;CloseGripper* -->
<g id="edge20" class="edge">
<title>GripperSequence&#45;&gt;CloseGripper*</title>
<path fill="none" stroke="black" d="M1137.27,-71.7C1150.4,-62.22 1166.78,-50.4 1180.7,-40.36"/>
<polygon fill="black" stroke="black" points="1182.59,-43.31 1188.65,-34.62 1178.49,-37.64 1182.59,-43.31"/>
</g>
</g>
</svg>
